<svg width="62" height="54" fill="none" xmlns="http://www.w3.org/2000/svg"><path d="M53.885 36.12H42.323a.721.721 0 00-.386.114.823.823 0 00-.285.311.931.931 0 00-.007.855l6.531 12.83-1.637 1.85H14.586l-1.664-1.84 6.55-12.84a.92.92 0 000-.86.837.837 0 00-.29-.308.737.737 0 00-.389-.112H7.232a.742.742 0 00-.55.252.908.908 0 00-.228.608c0 .228.082.447.228.608a.742.742 0 00.55.252h10.231L11.257 50a.94.94 0 00-.083.523.9.9 0 00.21.477l2.316 2.56c.073.08.159.143.253.186a.714.714 0 00.299.064h32.567a.714.714 0 00.299-.064.778.778 0 00.253-.186L49.696 51a.898.898 0 00.21-.477.94.94 0 00-.083-.523l-6.16-12.16h10.222c.206 0 .404-.09.55-.252a.908.908 0 00.228-.608.908.908 0 00-.228-.608.742.742 0 00-.55-.252z" fill="#2ee5d8"/><path d="M13.673 39.92a.846.846 0 00-.29-.327.74.74 0 00-.398-.123H7.232a.764.764 0 00-.502.284.924.924 0 00-.201.581c0 .215.072.422.201.581.13.16.309.261.502.284h4.315l-3.194 5.46a.933.933 0 00-.126.638c.036.223.15.421.316.552a.701.701 0 00.426.14.746.746 0 00.373-.105.84.84 0 00.287-.285l3.98-6.8a.95.95 0 00.063-.88zM53.885 39.47H48.13a.732.732 0 00-.394.124.838.838 0 00-.284.326.907.907 0 000 .88l3.98 6.8c.07.12.167.218.281.286a.72.72 0 00.796-.036.818.818 0 00.219-.233.949.949 0 00.016-.957L49.57 41.2h4.315a.765.765 0 00.501-.284.924.924 0 00.202-.581.924.924 0 00-.202-.581.764.764 0 00-.501-.284zM60.887 11.68L51.45 1.22a.702.702 0 00-.25-.194.638.638 0 00-.302-.056h-8.087a.714.714 0 00-.299.064.777.777 0 00-.253.186l-9.417 10.46a.93.93 0 00-.223.61c0 .227.08.446.223.61l.687.77v7.38h-5.989V13.7l.724-.8a.92.92 0 00.226-.61.92.92 0 00-.226-.61L18.838 1.22a.777.777 0 00-.253-.186.714.714 0 00-.299-.064H10.2a.714.714 0 00-.299.064.777.777 0 00-.253.186L.23 11.68a.87.87 0 00-.17.28.94.94 0 000 .66c.04.105.097.2.17.28l2.442 2.7a.7.7 0 00.462.25v10c0 .113.019.225.058.33.038.105.096.2.168.28l2.044 2.26a.772.772 0 00.252.192.707.707 0 00.3.068h16.61a.753.753 0 00.551-.26l2.045-2.26a.826.826 0 00.1-.15l1.61-3.44h7.237l1.628 3.44a.894.894 0 00.236.29l1.98 2.18c.072.083.157.149.252.194a.689.689 0 00.3.066h16.673a.689.689 0 00.3-.066.755.755 0 00.252-.194l2.045-2.26a.873.873 0 00.168-.28.941.941 0 00.058-.33v-10a.761.761 0 00.443-.24l2.443-2.7a.883.883 0 00.188-.293.96.96 0 000-.704.882.882 0 00-.188-.293zM25.985 21l-.597 1.27v-6.43a.719.719 0 00.434-.24l.163-.18V21zm-24.1-8.71l8.64-9.58h7.436l8.676 9.58-1.348 1.48-7.88-8.69a.755.755 0 00-.251-.194.69.69 0 00-.3-.066h-5.194a.69.69 0 00-.3.066.756.756 0 00-.251.194L3.36 13.62l-.136.16-1.339-1.49zM17.59 27.22h-6.604v-5.41l1.592-1.76h3.375l1.637 1.75v5.42zm4.695 0h-3.184v-5.77a.938.938 0 00-.058-.33.872.872 0 00-.168-.28l-2.045-2.27a.775.775 0 00-.253-.186.713.713 0 00-.299-.064h-4.025a.714.714 0 00-.299.064.776.776 0 00-.253.186l-2.045 2.27a.871.871 0 00-.168.28.939.939 0 00-.058.33v5.77H6.282l-1.583-1.75V14.59l7.291-8h4.523l7.301 8.06v10.81l-1.529 1.76zm12.81-11.83l.19.21c.123.14.286.228.461.25v6.51l-.65-1.36v-5.61zm15.063 11.83h-6.56v-5.41l1.593-1.76h3.374l1.593 1.75v5.42zm4.695 0h-3.14v-5.77a.938.938 0 00-.057-.33.87.87 0 00-.169-.28l-2.044-2.27a.776.776 0 00-.253-.186.714.714 0 00-.299-.064h-4.026a.776.776 0 00-.552.25l-2.044 2.27a.87.87 0 00-.168.28.94.94 0 00-.058.33v5.77h-3.148l-1.584-1.75V14.59l7.292-8h4.523l7.364 8.02v10.85l-1.637 1.76zm3.04-13.45l-7.871-8.69a.756.756 0 00-.252-.194.69.69 0 00-.3-.066h-5.193a.69.69 0 00-.3.066.755.755 0 00-.252.194l-7.743 8.54-.145.16-.96-1.06-.352-.39 8.64-9.58H50.6l8.603 9.54-1.312 1.48z" fill="#2ee5d8"/><path d="M50.737 10.67h-7.708a.742.742 0 00-.55.252.908.908 0 00-.228.608V15a.94.94 0 00.056.332.874.874 0 00.168.282c.073.081.16.146.254.19a.713.713 0 00.3.066h7.708a.714.714 0 00.3-.066.778.778 0 00.253-.19.873.873 0 00.168-.282.942.942 0 00.057-.332v-3.47a.908.908 0 00-.228-.608.742.742 0 00-.55-.252zm-.778 3.46h-6.134v-1.74h6.152l-.018 1.74zM18.124 10.67h-7.708a.742.742 0 00-.55.252.908.908 0 00-.228.608V15a.94.94 0 00.057.332.873.873 0 00.168.282c.072.081.158.146.253.19a.714.714 0 00.3.066h7.708a.752.752 0 00.55-.258.92.92 0 00.228-.612v-3.47a.918.918 0 00-.23-.605.752.752 0 00-.548-.255zm-.787 3.46h-6.143v-1.74h6.143v1.74zM31.314 45.13c0-.62-.317-1-.778-1-.462 0-.815.39-.815 1v4.12c0 .62.317 1 .778 1 .462 0 .806-.39.815-1 .009-.61 0-1.37 0-2.06s.018-1.37 0-2.06zM31.314 37.12a.93.93 0 00-.234-.622.76.76 0 00-.563-.258.76.76 0 00-.562.258.93.93 0 00-.234.622v3.42a.953.953 0 00.049.343c.037.11.093.21.166.295.072.085.16.152.256.2a.724.724 0 00.307.072.71.71 0 00.323-.058.777.777 0 00.272-.2.877.877 0 00.174-.305.944.944 0 00.046-.357c.018-1.13.018-2.27 0-3.41zM29.721 33.46a.944.944 0 00.043.358c.036.115.095.22.17.307a.779.779 0 00.27.203.711.711 0 00.322.062c.471 0 .76-.35.788-1v-1.24-1.19-.1a.955.955 0 00-.052-.34.888.888 0 00-.166-.291.792.792 0 00-.256-.197.724.724 0 00-.304-.072.713.713 0 00-.323.058.776.776 0 00-.272.2.875.875 0 00-.174.305.942.942 0 00-.046.357c-.018.89-.018 1.74 0 2.58zM47.353 33.51a.72.72 0 00.295-.084.79.79 0 00.242-.203.885.885 0 00.154-.29.945.945 0 00.042-.333.911.911 0 00-.25-.596.746.746 0 00-.555-.234h-2.388a.72.72 0 00-.304.053.778.778 0 00-.262.177.912.912 0 00-.253.605.926.926 0 00.208.625c.142.17.338.27.547.28.844.04 1.686.04 2.524 0zM16.206 33.51a.71.71 0 00.296-.082.781.781 0 00.244-.202.876.876 0 00.154-.291.932.932 0 00.039-.335.912.912 0 00-.247-.593.747.747 0 00-.55-.237h-2.388a.755.755 0 00-.553.236.921.921 0 00-.252.594c-.01.227.061.45.198.62.137.17.33.275.535.29.844.04 1.685.04 2.524 0zM41.753 33.51a.72.72 0 00.295-.08.788.788 0 00.245-.2.882.882 0 00.157-.288.944.944 0 00.045-.332.914.914 0 00-.243-.6.748.748 0 00-.553-.24h-2.388a.747.747 0 00-.556.234.912.912 0 00-.25.596.935.935 0 00.039.332.877.877 0 00.151.29c.067.085.15.154.241.204.092.049.191.078.293.084.845.04 1.686.04 2.524 0zM21.788 33.51a.709.709 0 00.296-.078.78.78 0 00.246-.2.872.872 0 00.157-.288.933.933 0 00.042-.334.923.923 0 00-.245-.597.758.758 0 00-.55-.243h-2.38a.718.718 0 00-.305.047.774.774 0 00-.265.172.869.869 0 00-.185.272.945.945 0 00.121.959.802.802 0 00.246.205.73.73 0 00.298.085c.844.04 1.685.04 2.524 0zM9.358 33.53h1.167a.712.712 0 00.32-.058.775.775 0 00.27-.196.875.875 0 00.175-.302.945.945 0 00.049-.354.917.917 0 00-.064-.341.842.842 0 00-.184-.283.748.748 0 00-.271-.177.692.692 0 00-.313-.039h-2.29a.691.691 0 00-.313.035.747.747 0 00-.274.173.842.842 0 00-.186.281.916.916 0 00-.068.341.944.944 0 00.046.357.876.876 0 00.174.305c.077.087.17.155.272.2a.712.712 0 00.323.058c.352.02.778 0 1.167 0zM52.926 33.51a.692.692 0 00.297-.075.758.758 0 00.245-.2.853.853 0 00.154-.29.912.912 0 00.037-.335.918.918 0 00-.06-.326.847.847 0 00-.17-.275.756.756 0 00-.252-.18.696.696 0 00-.296-.059H50.492a.693.693 0 00-.297.05.75.75 0 00-.257.174.844.844 0 00-.175.271.915.915 0 00-.067.325.912.912 0 00.033.348.852.852 0 00.16.302c.071.087.159.156.257.203a.69.69 0 00.31.067c.826.04 1.65.04 2.47 0zM31.305 25.53a.912.912 0 00-.25-.597.746.746 0 00-.556-.233.687.687 0 00-.288.06.748.748 0 00-.245.176.836.836 0 00-.166.267.907.907 0 00-.06.317 18.992 18.992 0 000 1.9c0 .228.082.447.227.608a.743.743 0 00.55.252c.207 0 .405-.09.55-.252a.908.908 0 00.229-.608 8.825 8.825 0 000-1c.009-.28.036-.59.009-.89z" fill="#2ee5d8"/></svg>