<svg xmlns="http://www.w3.org/2000/svg" width="103" height="115" fill="none">
  <g fill="#2EE5D8" clip-path="url(#a)">
    <path d="M68.926 41.985a3.637 3.637 0 0 0-1.177-.146H14.86a3.808 3.808 0 0 0-1.093.105 1.625 1.625 0 0 0-.69 2.697c.264.268.611.438.985.48.328.022.658.022.988 0H67.6c.364.032.73.032 1.094 0 .376-.02.73-.179.995-.446.264-.267.419-.622.434-.996a1.479 1.479 0 0 0-.253-1.089 1.493 1.493 0 0 0-.945-.605Zm-54.758-7.004c.33.02.66.02.988 0h52.32c.33.02.657.02.987 0a1.644 1.644 0 0 0 1.134-.514c.295-.313.454-.73.443-1.159a1.582 1.582 0 0 0-.475-1.131 1.598 1.598 0 0 0-1.144-.458H14.21a1.665 1.665 0 0 0-1.14.469 1.647 1.647 0 0 0-.5 1.12c.005.428.172.839.468 1.149.297.31.7.498 1.13.524Zm-.316-11.542c.364.042.73.042 1.093 0h25.709c.327.031.66.031.987 0 .372-.074.707-.273.948-.565a1.626 1.626 0 0 0-.948-2.634c-.406-.02-.813-.02-1.219 0H15.198a7.926 7.926 0 0 0-1.22 0c-.37.057-.71.24-.96.52a1.605 1.605 0 0 0 .834 2.637v.042Z"/>
    <path stroke="#2EE5D8" d="m101.781 85.56-15.24-25.572V21.871c.01-.104.01-.21 0-.314a.6.6 0 0 0 0-.188v-.125a.456.456 0 0 0 0-.168l-.168-.209-19.38-19.362a1.636 1.636 0 0 0-1.346-.71H6.769a1.584 1.584 0 0 0-1.157.48L.778 6.085a1.589 1.589 0 0 0-.484 1.15v91.707a1.582 1.582 0 0 0 .484 1.15l4.813 4.809c.315.291.727.455 1.157.46h29.239a5.6 5.6 0 0 0 2.817 3.617 5.926 5.926 0 0 0 4.771.272c.383.89.985 1.669 1.75 2.266.766.596 1.671.991 2.631 1.147a5.797 5.797 0 0 0 5.247-1.845l3.552 2.091a5.59 5.59 0 0 0 7.61-1.054 5.53 5.53 0 0 0 1.135-2.542l.147-.126a5.784 5.784 0 0 0 5.397-.019 5.759 5.759 0 0 0 2.062-1.855c.525-.777.85-1.67.949-2.6a5.704 5.704 0 0 0 4.477-.878 5.978 5.978 0 0 0 2.418-3.89 5.684 5.684 0 0 0 3.57.047 5.653 5.653 0 0 0 2.886-2.09 5.604 5.604 0 0 0-.15-6.738 5.988 5.988 0 0 1 3.279-1.255l4.204 1.046c.14.02.281.02.42 0 .28-.008.553-.08.8-.21l5.212-2.927c.191-.106.359-.25.493-.422.133-.173.23-.37.285-.581a1.502 1.502 0 0 0-.168-1.255ZM66.971 6.273l14.02 14.03h-8.155l-5.865-6.148V6.274Zm-63.419 92V7.757l3.89-3.868h56.27v10.873c-.003.419.155.823.442 1.129L70.944 23a1.618 1.618 0 0 0 1.177.523h11.162v32.116a1.542 1.542 0 0 0-1.093.167l-5.255 2.949a1.594 1.594 0 0 0-.778 1.024l-1.703 6.586c-.084.301-.084.62 0 .92a18.517 18.517 0 0 1-2.985-.167 14.581 14.581 0 0 1-2.9-1.045 9.083 9.083 0 0 0-6.748-.523c-1.324.418-2.712.648-4.057 1.046a2.388 2.388 0 0 1-2.102-.21 8.61 8.61 0 0 0-8.24-.543c-.967.418-1.976.794-2.985 1.15a10.222 10.222 0 0 1-5.528-.69l-1.66-6.42a1.632 1.632 0 0 0-.716-.982l-5.129-3.157a1.602 1.602 0 0 0-2.249.543L11.687 85.456a1.602 1.602 0 0 0 .547 2.195l5.129 3.178c.263.149.56.228.862.23.132.021.267.021.4 0l6.558-1.673c.106.092.238.15.378.168-5.108 5.29-1.409 11.604 3.952 11.061.18.529.399 1.045.651 1.547H7.42l-3.868-3.89Zm72.5-28.332 10.51 17.71a14.06 14.06 0 0 1-2.102 1.087 1.731 1.731 0 0 1-1.24-.272 4877.894 4877.894 0 0 1-20.138-11.834l-1.24-.711c-1.556-.878-2.67-.314-2.817 1.443a4.019 4.019 0 0 1-.49 1.954 4.044 4.044 0 0 1-1.38 1.475c-.731.334-1.491.6-2.27.794 0-3.073-.127-5.875 0-8.677a3.442 3.442 0 0 1 .916-1.925 3.474 3.474 0 0 1 1.879-1.023c1.934-.544 3.889-1.067 5.865-1.443a6.342 6.342 0 0 1 2.48.251c.673.192 1.326.443 1.955.753a10.552 10.552 0 0 0 8.072.418Zm-39.308 31.008c-.39.364-.846.648-1.346.836-2.102 0-3.195-1.881-2.27-3.303 1.556-2.363 3.237-4.621 4.94-6.858a2.207 2.207 0 0 1 3.017-.41 2.178 2.178 0 0 1 .536 2.981c-1.556 2.3-3.196 4.538-4.877 6.754Zm-3.847-8.07a38.74 38.74 0 0 1-2.67 3.721 2.95 2.95 0 0 1-1.156.606 2.24 2.24 0 0 1-2.2-.927 2.21 2.21 0 0 1-.091-2.376 31.552 31.552 0 0 1 2.48-3.45 2.11 2.11 0 0 1 2.9-.355 2.081 2.081 0 0 1 .736 2.78Zm-9.123-6.524-5.276 1.338-3.195-1.966 15.744-26.366 3.132 1.945 1.366 5.31-11.77 19.739Zm19.612 18.818a2.292 2.292 0 0 1-2.399 1.083 2.292 2.292 0 0 1-.859-.351 2.093 2.093 0 0 1-.778-.983 1.691 1.691 0 0 0 .231-2.091l.127-.23c1.471-2.091 2.985-4.182 4.498-6.273a2.113 2.113 0 0 1 2.607-.857c.47.17.872.484 1.148.898.276.414.411.906.386 1.402a8.18 8.18 0 0 1-.589 1.296c-1.513 2.091-2.9 4.098-4.372 6.106Zm6.306 4.182a2.115 2.115 0 0 1-2.501-.628 2.084 2.084 0 0 1-.337-2.53 18.183 18.183 0 0 1 1.913-2.655 2.236 2.236 0 0 1 3.358.161c.264.333.426.734.468 1.156a7.358 7.358 0 0 1-2.985 4.391l.084.105Zm32.56-12.546a7.702 7.702 0 0 1-1.176-.585l-13.201-7.779c-.252-.146-.484-.313-.757-.439a1.667 1.667 0 0 0-2.312.544 1.606 1.606 0 0 0 .61 2.28c.735.48 1.513.898 2.27 1.337l7.882 4.642c1.955 1.171 2.502 2.321 1.703 3.638-.799 1.318-2.102 1.338-4.057.188l-9.69-5.687c-.442-.25-1.093-.585-1.514-.439a2.392 2.392 0 0 0-1.345 1.213c-.336.794.147 1.464.904 1.903l7.02 4.181.673.377a2.333 2.333 0 0 1 1.262 1.381 2.313 2.313 0 0 1-.169 1.86 2.263 2.263 0 0 1-1.533 1.086 2.282 2.282 0 0 1-1.83-.438l-6.642-3.91a8.862 8.862 0 0 0-.862-.481 1.541 1.541 0 0 0-1.732.202 1.523 1.523 0 0 0-.37.488 1.495 1.495 0 0 0 .047 1.687c.117.162.265.299.436.404.967.648 2.102 1.192 3.006 1.798.508.233.91.645 1.133 1.156.221.51.246 1.084.069 1.612a2.266 2.266 0 0 1-1.03 1.247 2.28 2.28 0 0 1-1.603.246 2.262 2.262 0 0 1-.86-.393l-3.384-2.091a5.914 5.914 0 0 0 .378-5.206 5.71 5.71 0 0 0-1.642-2.16 5.747 5.747 0 0 0-2.457-1.165 5.806 5.806 0 0 0-1.03-5.415 5.547 5.547 0 0 0-2.255-1.712 5.577 5.577 0 0 0-2.81-.379 5.72 5.72 0 0 0-1.39-2.685 5.766 5.766 0 0 0-2.567-1.61 5.791 5.791 0 0 0-5.692 1.368c-.169-.21-.358-.397-.547-.607a5.594 5.594 0 0 0-2.962-1.894 5.619 5.619 0 0 0-3.512.243c-.439.121-.89.192-1.345.209l-.043-.23L37.69 69.439c1.303.45 2.63.832 3.973 1.15a9.017 9.017 0 0 0 5.044-.92 39.235 39.235 0 0 1 2.985-1.087 4.5 4.5 0 0 1 3.7.418 9.332 9.332 0 0 0-1.871 6.858v5.06a3.513 3.513 0 0 0 1.154 2.935 3.556 3.556 0 0 0 3.05.85 7.108 7.108 0 0 0 3.422-1.128 7.059 7.059 0 0 0 2.422-2.657c.097-.153.181-.314.252-.48l.273-.565c.173.063.334.146.484.25l21.02 12.337a2.5 2.5 0 0 1 1.1.893c.273.397.423.864.435 1.344a2.08 2.08 0 0 1-.888 1.877 2.109 2.109 0 0 1-2.076.193l.084.042Zm12.74-9.179-5.361-1.338-11.856-19.78 1.346-5.27 3.258-1.84 15.744 26.325-3.132 1.903Z"/>
  </g>
  <defs>
    <clipPath id="a">
      <path fill="#fff" d="M0 0h103v115H0z"/>
    </clipPath>
  </defs>
</svg>
