<svg width="47" height="55" fill="none" xmlns="http://www.w3.org/2000/svg"><path d="M45.47 45.9H31.08a87.926 87.926 0 013.64-18l1.38 3.68a.66.66 0 00.44.42.57.57 0 00.22 0 .76.76 0 00.38-.11c.94-.58 2.4-2.54 1.25-5.73l5.14 2.21a.76.76 0 00.61 0 .69.69 0 00.36-.37c.26-1.26-.21-4.07-3.88-5.66a8.61 8.61 0 00-.82-.34l4-2.31a.73.73 0 00.34-.5.741.741 0 00-.17-.59c-.86-1-3.4-2.25-6.86-.25a9.8 9.8 0 00-1 .65c-1.84-4.19-5.23-3.83-5.37-3.81a.73.73 0 00-.53.35.7.7 0 000 .63l1.77 4.28a7.702 7.702 0 00-2.82-.49c-3.64 0-5.1 1.9-5.64 3-.59-1.64-1.17-3.18-1.74-4.59L26 20.2a.93.93 0 00.8 0 1 1 0 00.5-.63 6.39 6.39 0 00-2.11-5.87l7.16.08a1.001 1.001 0 00.74-.36 1.001 1.001 0 00.18-.81c-.06-.22-1.38-5.35-8.67-5.39a11 11 0 00-4.22.71 1.697 1.697 0 000-.23L23 1.45a.92.92 0 00-.05-.84 1 1 0 00-.7-.46c-.22 0-5.22-.57-7.9 5.69a13.559 13.559 0 00-1.53-1c-6.34-3.65-10 .31-10 .35a.93.93 0 00-.23.78.92.92 0 00.45.66l6.09 3.55c-.485.152-.963.33-1.43.53-6.7 2.92-5.69 8.21-5.68 8.26a1 1 0 00.49.65 1 1 0 00.81 0l7.82-3.36a.601.601 0 000 .12c-1.75 4.72.4 7.6 1.78 8.46a.89.89 0 00.5.15 1 1 0 00.3-.05 1 1 0 00.58-.57l1.54-4.1.6-1.63a129.324 129.324 0 015.39 27.26H1.19a.94.94 0 00-.94.95v3.68a1 1 0 00.28.67L3.32 54a1 1 0 00.67.27h38.68a1 1 0 00.67-.27l2.8-2.8a1 1 0 00.28-.67v-3.68a1 1 0 00-.95-.95zm-16.75 0c-.18-2.17-.46-4.32-.82-6.43a89.528 89.528 0 014-10.62c.29-.66.53-1.23.73-1.71l.24-.6a.72.72 0 00-.17-.77.7.7 0 00-.78-.13l-.14.06-.25-.5a.47.47 0 00-.64-.2.46.46 0 00-.2.63l.23.45-2.32 1a4 4 0 012.4-2.64h1.87a.71.71 0 00.43.87.739.739 0 00.25 0 .7.7 0 00.66-.47l.13-.35a90.309 90.309 0 00-4.68 21.41h-.94zM37 26.67a3.9 3.9 0 010 3.38l-.47-1.24a.46.46 0 00.24-.58.47.47 0 00-.56-.29l-.21-.69.25-.09a.48.48 0 00.28-.61.47.47 0 00-.6-.28l-.27.1-.2-.37.26-.86.68.29c.246.39.447.805.6 1.24zm6 0l-3.58-1.54.3-.69a.472.472 0 00-.24-.62.472.472 0 00-.62.24l-.31.7-1.45-.63-1.42-.74a3.86 3.86 0 011.48-.39c.183-.015.367-.015.55 0a6.11 6.11 0 012.3.57c2.22.96 2.88 2.27 3.06 3.15l-.07-.05zm-5.28-7.17a5.68 5.68 0 012.85-.87 3.46 3.46 0 011.47.31l-3.37 2-.37-.65a.49.49 0 00-.65-.18.48.48 0 00-.17.65l.37.66-.27.16a5.16 5.16 0 00-2.28.45 5.45 5.45 0 012.49-2.48l-.07-.05zm-2.72.41V20a5.558 5.558 0 00-1 1.65l-.45-1.07.59-.22a.48.48 0 00.27-.61.47.47 0 00-.61-.27l-.61.23-1.26-3a4.78 4.78 0 013.07 3.2zm-5.85 1.44h.06a4.82 4.82 0 013.68 1.29H31.6a.57.57 0 00-.22 0l-.15.06v-.17a.47.47 0 10-.94 0V23h-1v-1a.47.47 0 10-.94 0v1h-3.29a4.77 4.77 0 014.06-1.65h.03zm-.57 3.11a4.35 4.35 0 00-1.32 3.91.711.711 0 00.37.47.7.7 0 00.6 0l2.71-1.2-.28.63c-1 2.25-2.29 5.31-3.29 8.23a102.845 102.845 0 00-3.3-12l4.51-.04zm-13-14l-.17-.08.1-.07c.02.039.036.079.05.12l.02.03zm15.31 1.43h-4.82v-1.7a.95.95 0 00-1.89 0v1.68h-1v-.7a.95.95 0 00-1.89 0v.26a.71.71 0 00-.29-.05h-2l.08-.2c.93-1 2.61-2 5.62-2 3.63-.07 5.39 1.53 6.17 2.68l.02.03zM20.62 2.15l-1.83 4.44-1-.39a.966.966 0 00-.7 1.8l1 .37L17.4 10a8.1 8.1 0 00-1.62-2.73c.028-.065.051-.132.07-.2 1.33-3.5 3.41-4.59 4.77-4.92zm-8.8 4.3a9.851 9.851 0 012.6 2.08l-.3.53a.94.94 0 000 .83A7.67 7.67 0 0012 9.66l-.22-.13.61-1.07A1 1 0 0012 7.17a1 1 0 00-1.29.36l-.6 1L5.17 5.7c1.19-.61 3.43-1.11 6.65.75zm-3.43 6a9.64 9.64 0 013.4-.85c.14-.01.28-.01.42 0h.14a5.73 5.73 0 012.66.73l-2.26 1.19-1.92.83-.5-1.12a.945.945 0 00-1.73.76l.49 1.11-5.25 2.26C4.05 16 5 13.9 8.39 12.41v.04zm4.55 9.9c-.6-.93-1.13-2.62-.15-5.28a8.72 8.72 0 011-1.93l1.13-.49.41 1.35-.16.4-.11-.24a.94.94 0 00-1.72.76l.06.15a1 1 0 00.34.77v.11a.999.999 0 00.58.52l-.1.25a.941.941 0 10-.64 1.77l-.64 1.86zm3.77-8.47l.24-.11.23.63a1 1 0 00.89.62 1 1 0 00.93-1.31v-.08h3c2.61 1.36 3.35 3.08 3.54 4.22l-3.39-1.51.39-.75a.944.944 0 00-1.68-.86l-.43.85a.93.93 0 00-1.24 1.21l.35.9c2.36 5.64 6.38 16.67 7.37 28.16h-3.19a133.272 133.272 0 00-7.01-32.01v.04zm27.82 36.3l-2.25 2.25H4.38l-2.24-2.25v-2.39h42.39v2.39z" fill="#2ee5d8"/></svg>