<svg width="59" height="56" fill="none" xmlns="http://www.w3.org/2000/svg"><path d="M13.09 16.88h9.45a.85.85 0 00.84-.85v-3.84a.85.85 0 00-.84-.85h-9.45a.85.85 0 00-.85.85V16a.85.85 0 00.85.88zm.84-3.88h7.76v2.15h-7.76V13z" fill="#2ee5d8"/><path d="M57.4 44.08h-4.85c-4.12 0-4.5-.85-6.59-5.53-.27-.62-.58-1.29-.91-2-2.82-6.12-4.38-8.41-6.93-10.2C36.25 25 33 25 31.34 25.12v-8.26a.87.87 0 00.57-.24l3-3a.85.85 0 000-1.2L23.34.83a.86.86 0 00-.6-.25h-9.92a.86.86 0 00-.6.25L.67 12.44a.84.84 0 000 1.19l3 3a.86.86 0 00.6.25v11.17c0 .22.087.432.24.59L7 31.15a.86.86 0 00.6.25h.31v16.91h-6.6a.85.85 0 00-.85.85v3.31a.82.82 0 00.25.59l2.51 2.51a.839.839 0 00.6.25h51.07a.829.829 0 00.59-.25L58 53.06a.87.87 0 00.24-.6v-7.54a.85.85 0 00-.84-.84zM37.15 27.72c2.06 1.44 3.4 3.08 6.36 9.51.34.73.63 1.4.91 2 2.12 4.75 2.92 6.53 8.13 6.53h4v2.54h-6.38c-2.7 0-5.3-2-7.15-5.38-.48-.88-1-2.07-1.56-3.34-1.94-4.4-4.35-9.88-7.95-9.88H30l1.07-1.07a.84.84 0 00.25-.6v-1.22c1.68-.1 4.45-.05 5.83.91zM23.83 48.31V31.4H26v16.91h-2.17zm-3 0V31.4h1.27v16.91h-1.27zm-4.14 0v-2.54h2.45v2.54h-2.45zm-3.06 0V31.4H15v16.91h-1.37zm8.27-18.6h-8.23v-6.17l2-2h4.23l2 2v6.17zm-2.76 9.55h-2.41v-3.1h2.45l-.04 3.1zM16.73 41h2.45v3.13h-2.45V41zm2.45-6.48h-2.45V31.4h2.45v3.12zm8.46-3.07h5.87c2.5 0 4.75 5.13 6.4 8.87.57 1.3 1.11 2.53 1.62 3.47a13.6 13.6 0 003.81 4.57h-17.7V31.45zM2.47 13l10.7-10.74h9.22L33.11 13l-1.8 1.8-9.73-9.7a.84.84 0 00-.6-.25h-6.36a.84.84 0 00-.6.25l-9.5 9.49-.24.24L2.47 13zM6 27.7V15.54l9-9h5.66l9 9v12.15l-2 2h-4v-6.5a.84.84 0 00-.25-.6l-2.51-2.51a.842.842 0 00-.6-.25h-4.96a.86.86 0 00-.6.25l-2.51 2.51a.86.86 0 00-.25.6v6.52H8L6 27.7zm3.66 3.7H12v16.91H9.62l.04-16.91zm46.89 20.71l-2 2H4.19l-2-2V50h54.36v2.11zM43.83 13.9h9a5.299 5.299 0 003.78-1.59A5.25 5.25 0 0053 3.4 5.92 5.92 0 0047.93.58a5.83 5.83 0 00-1.8.28A6 6 0 0042 6.62a3.82 3.82 0 00-2 4.05 3.87 3.87 0 003.83 3.23zM43.14 8c.48-.17.61-.38.55-.86a4.282 4.282 0 014.23-4.83 4.25 4.25 0 013.74 2.22 1 1 0 001 .6h.2a3.56 3.56 0 010 7.12h-9a2.17 2.17 0 01-2.24-1.8A2.15 2.15 0 0143.14 8z" fill="#2ee5d8"/></svg>